<?xml version="1.0" encoding="UTF-8" standalone="no"?>
<!DOCTYPE svg PUBLIC "-//W3C//DTD SVG 1.1//EN" "http://www.w3.org/Graphics/SVG/1.1/DTD/svg11.dtd">
<svg width="100%" height="100%" viewBox="0 0 32 32" version="1.1" xmlns="http://www.w3.org/2000/svg" xmlns:xlink="http://www.w3.org/1999/xlink" xml:space="preserve" xmlns:serif="http://www.serif.com/" style="fill-rule:evenodd;clip-rule:evenodd;stroke-linejoin:round;stroke-miterlimit:2;">
    <g transform="matrix(0.314342,0,0,0.314342,16,16)">
        <g id="Lab" transform="matrix(1,0,0,1,-50,-50)">
            <path d="M83.16,81.19L63.896,46.514L64.038,30.556L66.667,30.556C68.191,30.556 69.444,29.302 69.444,27.778C69.444,26.254 68.191,25 66.667,25L33.333,25C31.809,25 30.556,26.254 30.556,27.778C30.556,29.302 31.809,30.556 33.333,30.556L35.962,30.556L36.104,46.514L16.84,81.192C15.796,83.072 15.247,85.189 15.247,87.34C15.247,94.285 20.962,100 27.907,100L72.093,100C79.038,99.999 84.753,94.284 84.753,87.339C84.753,85.188 84.205,83.071 83.16,81.19ZM41.317,48.572C41.55,48.152 41.671,47.678 41.667,47.198L41.518,30.556L58.482,30.556L58.333,47.198C58.329,47.678 58.45,48.152 58.683,48.572L68.61,66.439C63.018,66.281 57.47,65.4 52.105,63.817C46.349,62.131 40.4,61.189 34.405,61.014L41.317,48.572ZM78.216,90.942C76.951,93.119 74.611,94.458 72.093,94.444L27.907,94.444C24.009,94.444 20.803,91.236 20.803,87.339C20.803,86.132 21.11,84.945 21.696,83.889L31.349,66.514C37.886,66.448 44.398,67.348 50.673,69.185C57.511,71.175 64.606,72.139 71.726,72.048L78.304,83.888C79.539,86.083 79.505,88.779 78.216,90.942L78.216,90.942Z" style="fill-rule:nonzero;"/>
            <circle cx="41.667" cy="11.111" r="5.556"/>
            <circle cx="59.722" cy="15.278" r="4.167"/>
            <circle cx="55.556" cy="2.778" r="2.778"/>
        </g>
        <g id="Lab1" serif:id="Lab">
        </g>
    </g>
</svg>
