<?xml version="1.0" encoding="UTF-8" standalone="no"?>
<!DOCTYPE svg PUBLIC "-//W3C//DTD SVG 1.1//EN" "http://www.w3.org/Graphics/SVG/1.1/DTD/svg11.dtd">
<svg width="100%" height="100%" viewBox="0 0 32 32" version="1.1" xmlns="http://www.w3.org/2000/svg" xmlns:xlink="http://www.w3.org/1999/xlink" xml:space="preserve" xmlns:serif="http://www.serif.com/" style="fill-rule:evenodd;clip-rule:evenodd;stroke-linejoin:round;stroke-miterlimit:2;">
    <g transform="matrix(0.314342,0,0,0.314342,16,16)">
        <g id="Markets" transform="matrix(1,0,0,1,-50,-50)">
            <path d="M95,30.173C95,31.46 93.957,32.503 92.669,32.503C91.382,32.503 90.339,31.46 90.339,30.173L90.339,24.929L63.427,51.84C62.583,52.684 61.412,53.2 60.125,53.2C58.932,53.2 57.733,52.751 56.823,51.84L25.763,20.781C24.853,19.871 24.853,18.389 25.763,17.479C26.673,16.569 28.13,16.569 29.041,17.479L60.125,48.539L87.037,21.627L81.793,21.627C80.506,21.627 79.462,20.583 79.462,19.296C79.462,18.009 80.506,16.966 81.793,16.966L92.669,16.966C93.957,16.966 95,18.009 95,19.296L95,30.173Z" style="fill-rule:nonzero;"/>
            <path d="M74.92,69.824C74.92,68.537 73.876,67.493 72.589,67.493C71.302,67.493 70.258,68.537 70.258,69.824L70.258,75.068L43.346,48.156C42.503,47.313 41.332,46.797 40.044,46.797C38.851,46.797 37.653,47.246 36.743,48.156L5.683,79.216C4.772,80.126 4.772,81.607 5.683,82.518C6.593,83.428 8.05,83.427 8.96,82.518L40.044,51.458L66.956,78.37L61.713,78.37C60.425,78.37 59.382,79.413 59.382,80.7C59.382,81.988 60.425,83.031 61.713,83.031L72.589,83.031C73.876,83.031 74.92,81.988 74.92,80.7L74.92,69.824Z" style="fill-rule:nonzero;"/>
        </g>
        <g id="Markets1" serif:id="Markets">
        </g>
    </g>
</svg>
