<?xml version="1.0" encoding="UTF-8" standalone="no"?>
<!DOCTYPE svg PUBLIC "-//W3C//DTD SVG 1.1//EN" "http://www.w3.org/Graphics/SVG/1.1/DTD/svg11.dtd">
<svg width="100%" height="100%" viewBox="0 0 32 32" version="1.1" xmlns="http://www.w3.org/2000/svg" xmlns:xlink="http://www.w3.org/1999/xlink" xml:space="preserve" xmlns:serif="http://www.serif.com/" style="fill-rule:evenodd;clip-rule:evenodd;stroke-linejoin:round;stroke-miterlimit:2;">
    <g transform="matrix(0.314342,0,0,0.314342,16,16)">
        <g id="Scorecards" transform="matrix(1,0,0,1,-50,-50)">
            <g>
                <path d="M82.5,32.9C81.4,32.9 80.5,33.8 80.5,34.9L80.5,91C80.5,91.7 79.8,92.3 78.9,92.3L21.1,92.3C20.2,92.3 19.5,91.7 19.5,91L19.5,8.9C19.5,8.2 20.2,7.6 21.1,7.6L60.3,7.6L60.3,23.2C60.3,24.3 61.2,25.2 62.3,25.2L82.4,25.2C83.2,25.2 84,24.7 84.3,23.9C84.6,23.1 84.4,22.2 83.7,21.7L63.7,4.1L63.6,4.1C63.5,4 63.4,3.9 63.2,3.9L63.1,3.9C62.9,3.8 62.8,3.8 62.6,3.8L21.1,3.8C18,3.8 15.5,6.2 15.5,9.1L15.5,91.2C15.5,94.1 18,96.5 21.1,96.5L78.9,96.5C82,96.5 84.5,94.1 84.5,91.2L84.5,34.9C84.5,33.8 83.6,32.9 82.5,32.9ZM64.3,21.2L64.3,10L77.1,21.2L64.3,21.2Z" style="fill-rule:nonzero;"/>
                <path d="M60.9,38.7L43.8,54.6L39.4,47.9C38.8,47 37.6,46.7 36.6,47.3C35.7,47.9 35.4,49.1 36,50.1L41.7,58.8L42.2,59.3C42.3,59.4 42.4,59.4 42.4,59.5L42.5,59.6C42.6,59.6 42.7,59.7 42.8,59.7L42.9,59.7C43,59.7 43.2,59.8 43.3,59.8C43.5,59.8 43.6,59.8 43.8,59.7L43.9,59.7C44.1,59.6 44.2,59.6 44.4,59.5L44.5,59.4C44.6,59.4 44.6,59.3 44.7,59.3L63.5,41.8C64.3,41 64.4,39.8 63.6,39C63,38 61.7,38 60.9,38.7Z" style="fill-rule:nonzero;"/>
            </g>
        </g>
        <g id="Scorecards1" serif:id="Scorecards">
        </g>
    </g>
</svg>
