<?xml version="1.0" encoding="UTF-8" standalone="no"?>
<!DOCTYPE svg PUBLIC "-//W3C//DTD SVG 1.1//EN" "http://www.w3.org/Graphics/SVG/1.1/DTD/svg11.dtd">
<svg width="100%" height="100%" viewBox="0 0 32 32" version="1.1" xmlns="http://www.w3.org/2000/svg" xmlns:xlink="http://www.w3.org/1999/xlink" xml:space="preserve" xmlns:serif="http://www.serif.com/" style="fill-rule:evenodd;clip-rule:evenodd;stroke-linejoin:round;stroke-miterlimit:2;">
    <g transform="matrix(0.314342,0,0,0.314342,16,16)">
        <g id="Situation-Room" transform="matrix(1,0,0,1,-50,-50)">
            <g>
                <g>
                    <g>
                        <path d="M92.4,72.2L91.8,72.2C93.2,70.4 94.2,68 94.2,65.6C94.2,59.8 89.4,55 83.6,55C77.8,55 73,59.8 73,65.6C73,68 73.8,70.4 75.4,72.2L74.8,72.2C72.2,72.2 70.2,74.2 70.2,76.8L70.2,90C70.2,93.4 72.8,96 76.2,96L91,96C94.4,96 97,93.4 97,90L97,76.8C97,74.2 95,72.2 92.4,72.2ZM77,65.6C77,62 80,59 83.6,59C87.2,59 90.2,62 90.2,65.6C90.2,69.2 87.2,72.2 83.6,72.2C80,72.2 77,69.2 77,65.6ZM93,89.8C93,91 92,91.8 91,91.8L76.2,91.8C75.2,91.8 74.2,91 74.2,89.8L74.2,76.6C74.2,76.4 74.4,76 74.8,76L92.6,76C93,76 93.2,76.2 93.2,76.6L93.2,89.8L93,89.8Z" style="fill-rule:nonzero;"/>
                    </g>
                    <g>
                        <path d="M27.8,72.2L27.2,72.2C28.6,70.4 29.6,68 29.6,65.6C29.6,59.8 24.8,55 19,55C13.2,55 8.4,59.8 8.4,65.6C8.4,68 9.2,70.4 10.8,72.2L10,72.2C7.4,72.2 5.4,74.2 5.4,76.8L5.4,90C5.4,93.4 8,96 11.4,96L26.2,96C29.6,96 32.2,93.4 32.2,90L32.2,76.8C32.2,74.2 30.2,72.2 27.8,72.2ZM12.2,65.6C12.2,62 15.2,59 18.8,59C22.4,59 25.4,62 25.4,65.6C25.4,69.2 22.4,72.2 18.8,72.2C15.2,72.2 12.2,69.2 12.2,65.6ZM28.2,89.8C28.2,91 27.4,91.8 26.2,91.8L11.4,91.8C10.4,91.8 9.4,91 9.4,89.8L9.4,76.6C9.4,76.4 9.6,76 10,76L27.8,76C28.2,76 28.4,76.2 28.4,76.6L28.4,89.8L28.2,89.8Z" style="fill-rule:nonzero;"/>
                    </g>
                    <g>
                        <path d="M82.2,50.8L20.2,50.8C16.8,50.8 14.2,48.2 14.2,44.8L14.2,11C14.2,7.6 16.8,5 20.2,5L82.2,5C85.6,5 88.2,7.6 88.2,11L88.2,44.8C88.2,48.2 85.6,50.8 82.2,50.8ZM20.2,9C19,9 18.2,9.8 18.2,11L18.2,44.8C18.2,46 19,46.8 20.2,46.8L82.2,46.8C83.4,46.8 84.2,46 84.2,44.8L84.2,11C84.2,9.8 83.4,9 82.2,9L20.2,9Z" style="fill-rule:nonzero;"/>
                    </g>
                    <g>
                        <path d="M51.2,43C43,43 36.2,36.2 36.2,28C36.2,19.8 43,13 51.2,13C59.4,13 66.2,19.8 66.2,28C66.2,36.2 59.4,43 51.2,43ZM51.2,17C45.2,17 40.2,22 40.2,28C40.2,34 45.2,39 51.2,39C57.2,39 62.2,34 62.2,28C62.2,22 57.2,17 51.2,17Z" style="fill-rule:nonzero;"/>
                    </g>
                    <g>
                        <path d="M54.2,30L51.2,30C50,30 49.2,29.2 49.2,28L49.2,20.6C49.2,19.4 50,18.6 51.2,18.6C52.4,18.6 53.2,19.4 53.2,20.6L53.2,26L54.2,26C55.4,26 56.2,26.8 56.2,28C56.2,29.2 55.4,30 54.2,30Z" style="fill-rule:nonzero;"/>
                    </g>
                    <g>
                        <path d="M60.2,72.2L59.6,72.2C61,70.4 62,68 62,65.6C62,59.8 57.2,55 51.4,55C45.6,55 40.8,59.8 40.8,65.6C40.8,68 41.6,70.4 43.2,72.2L42.6,72.2C40,72.2 38,74.2 38,76.8L38,90C38,93.4 40.6,96 44,96L58.8,96C62.2,96 64.8,93.4 64.8,90L64.8,76.8C64.8,74.2 62.8,72.2 60.2,72.2ZM44.8,65.6C44.8,62 47.8,59 51.4,59C55,59 58,62 58,65.6C58,69.2 55,72.2 51.4,72.2C47.6,72.2 44.8,69.2 44.8,65.6ZM60.8,89.8C60.8,91 59.8,91.8 58.8,91.8L44,91.8C43,91.8 42,91 42,89.8L42,76.6C42,76.4 42.2,76 42.6,76L60.4,76C60.8,76 61,76.2 61,76.6L61,89.8L60.8,89.8Z" style="fill-rule:nonzero;"/>
                    </g>
                </g>
            </g>
        </g>
        <g id="Situation-Room1" serif:id="Situation-Room">
        </g>
    </g>
</svg>
